<svg width="258" height="45" viewBox="0 0 258 45" fill="none" xmlns="http://www.w3.org/2000/svg">
<path d="M15.6924 9.37148H23.3313V1.73254H0V9.37148H7.63893V43.1841H15.6924V9.37148Z" fill="#0047D4"/>
<path d="M36.3478 30.0381L42.1511 43.1841H50.2045L43.513 27.9655C46.9476 25.7152 49.0794 21.6293 49.0794 15.8853C49.0794 6.64752 43.6315 1.73254 36.111 1.73254H25.0967V43.1841H33.1501V30.0381H36.3478ZM33.1501 22.3399V9.37148H36.5255C38.0651 9.37148 41.3812 10.3782 41.3812 15.8853C41.3812 21.3924 38.0651 22.3399 36.5255 22.3399H33.1501Z" fill="#0D3FD9"/>
<path d="M59.5458 38.6837H68.902L69.6719 43.1841H77.7253L68.4283 1.73254H59.9603L50.6633 43.1841H58.7168L59.5458 38.6837ZM60.8486 31.0447L64.2239 12.1547L67.5401 31.0447H60.8486Z" fill="#1A37DE"/>
<path d="M89.8723 1.73254H79.687V43.1841H89.8723C94.4319 43.1841 102.485 41.23 102.485 31.0447V13.8719C102.485 3.68669 94.4319 1.73254 89.8723 1.73254ZM87.7405 35.2491V9.66756H89.8723C92.1817 9.66756 94.4319 10.1413 94.4319 13.8719V31.0447C94.4319 34.7754 92.1817 35.2491 89.8723 35.2491H87.7405Z" fill="#272FE2"/>
<path d="M114.11 18.7277V9.37148H126.25V1.73254H106.057V43.1841H126.25V35.5452H114.11V26.3666H124.651V18.7277H114.11Z" fill="#3427E7"/>
<path d="M149.198 22.3991C151.389 20.445 152.514 17.4841 152.514 14.0496C152.514 3.50904 145.645 1.73254 142.566 1.73254H129.42V43.1841H142.033C150.205 43.1841 153.817 37.6178 153.817 30.9263C153.817 27.6102 152.277 24.0572 149.198 22.3991ZM137.473 35.5452V26.3666H142.033C143.336 26.3666 145.763 27.2549 145.763 30.9263C145.763 34.6569 143.336 35.5452 142.033 35.5452H137.473ZM137.473 18.7277V9.37148H141.559C142.862 9.37148 144.875 10.2005 144.875 14.0496C144.875 17.8987 142.862 18.7277 141.559 18.7277H137.473Z" fill="#4020EC"/>
<path d="M168.851 0.72583C164.292 0.72583 156.238 3.68666 156.238 13.8719V31.0447C156.238 41.2299 164.292 44.1908 168.851 44.1908C173.411 44.1908 181.465 41.2299 181.465 31.0447V13.8719C181.465 3.68666 173.411 0.72583 168.851 0.72583ZM164.292 31.0447V13.8719C164.292 10.1413 166.542 8.66085 168.851 8.66085C171.161 8.66085 173.411 10.1413 173.411 13.8719V31.0447C173.411 34.7753 171.161 36.2558 168.851 36.2558C166.542 36.2558 164.292 34.7753 164.292 31.0447Z" fill="#4D18F1"/>
<path d="M197.072 0.72583C192.512 0.72583 184.459 3.68666 184.459 13.8719V31.0447C184.459 41.2299 192.512 44.1908 197.072 44.1908C201.632 44.1908 209.685 41.2299 209.685 31.0447V13.8719C209.685 3.68666 201.632 0.72583 197.072 0.72583ZM192.512 31.0447V13.8719C192.512 10.1413 194.762 8.66085 197.072 8.66085C199.381 8.66085 201.632 10.1413 201.632 13.8719V31.0447C201.632 34.7753 199.381 36.2558 197.072 36.2558C194.762 36.2558 192.512 34.7753 192.512 31.0447Z" fill="#5A10F5"/>
<path d="M211.122 11.5033C211.122 6.41065 213.846 3.21296 217.221 1.73254H209.464V43.1841H216.925C210.707 40.4009 210.115 32.762 210.115 30.6302H218.169C218.169 33.0581 219.294 36.3742 222.314 36.3742C224.742 36.3742 226.341 34.953 226.341 32.3475C226.341 25.3007 211.122 24.0572 211.122 11.5033ZM218.761 11.7401C218.761 18.1355 234.157 20.5634 234.157 31.5777C234.157 37.9139 231.611 41.5853 227.762 43.1841H235.045V1.73254H227.406C233.387 4.45651 233.565 11.6809 233.565 13.7535H225.512C225.512 11.3848 225.038 8.54245 222.018 8.54245C220.478 8.54245 218.761 9.13461 218.761 11.7401Z" fill="#6708FA"/>
<path d="M234.669 9.37146V43.1841H242.308V9.37146H234.669ZM250.361 43.1841H258V9.37146H250.361V43.1841Z" fill="#7400FF"/>
</svg>
