<svg width="164" height="28" viewBox="0 0 164 28" fill="none" xmlns="http://www.w3.org/2000/svg">
<path d="M9.97501 5.49568H14.8308V0.639923H0V5.49568H4.85575V26.989H9.97501V5.49568Z" fill="#0047D4"/>
<path d="M23.1048 18.6326L26.7937 26.989H31.9129L27.6594 17.3151C29.8426 15.8847 31.1977 13.2875 31.1977 9.63625C31.1977 3.76417 27.7347 0.639923 22.9542 0.639923H15.9529V26.989H21.0721V18.6326H23.1048ZM21.0721 13.7392V5.49568H23.2177C24.1964 5.49568 26.3043 6.13559 26.3043 9.63625C26.3043 13.1369 24.1964 13.7392 23.2177 13.7392H21.0721Z" fill="#0D3FD9"/>
<path d="M37.8509 24.1282H43.7983L44.2877 26.989H49.4069L43.4972 0.639923H38.1144L32.2047 26.989H37.324L37.8509 24.1282ZM38.6791 19.2725L40.8246 7.26483L42.9326 19.2725H38.6791Z" fill="#1A37DE"/>
<path d="M57.128 0.639923H50.6537V26.989H57.128C60.0264 26.989 65.1457 25.7468 65.1457 19.2725V8.35644C65.1457 1.88209 60.0264 0.639923 57.128 0.639923ZM55.7729 21.945V5.68389H57.128C58.596 5.68389 60.0264 5.98502 60.0264 8.35644V19.2725C60.0264 21.6439 58.596 21.945 57.128 21.945H55.7729Z" fill="#272FE2"/>
<path d="M72.5353 11.443V5.49568H80.2518V0.639923H67.416V26.989H80.2518V22.1332H72.5353V16.2988H79.2355V11.443H72.5353Z" fill="#3427E7"/>
<path d="M94.839 13.7768C96.2317 12.5346 96.9469 10.6526 96.9469 8.46936C96.9469 1.76917 92.5805 0.639923 90.6231 0.639923H82.2667V26.989H90.2844C95.4789 26.989 97.775 23.4507 97.775 19.1972C97.775 17.0893 96.7963 14.8308 94.839 13.7768ZM87.386 22.1332V16.2988H90.2844C91.1125 16.2988 92.6558 16.8634 92.6558 19.1972C92.6558 21.5686 91.1125 22.1332 90.2844 22.1332H87.386ZM87.386 11.443V5.49568H89.9832C90.8114 5.49568 92.0912 6.02266 92.0912 8.46936C92.0912 10.9161 90.8114 11.443 89.9832 11.443H87.386Z" fill="#4020EC"/>
<path d="M107.332 0C104.433 0 99.3142 1.88208 99.3142 8.35642V19.2725C99.3142 25.7468 104.433 27.6289 107.332 27.6289C110.23 27.6289 115.349 25.7468 115.349 19.2725V8.35642C115.349 1.88208 110.23 0 107.332 0ZM104.433 19.2725V8.35642C104.433 5.985 105.864 5.04396 107.332 5.04396C108.8 5.04396 110.23 5.985 110.23 8.35642V19.2725C110.23 21.6439 108.8 22.5849 107.332 22.5849C105.864 22.5849 104.433 21.6439 104.433 19.2725Z" fill="#4D18F1"/>
<path d="M125.27 0C122.372 0 117.253 1.88208 117.253 8.35642V19.2725C117.253 25.7468 122.372 27.6289 125.27 27.6289C128.169 27.6289 133.288 25.7468 133.288 19.2725V8.35642C133.288 1.88208 128.169 0 125.27 0ZM122.372 19.2725V8.35642C122.372 5.985 123.802 5.04396 125.27 5.04396C126.738 5.04396 128.169 5.985 128.169 8.35642V19.2725C128.169 21.6439 126.738 22.5849 125.27 22.5849C123.802 22.5849 122.372 21.6439 122.372 19.2725Z" fill="#5A10F5"/>
<path d="M134.202 6.85078C134.202 3.6136 135.933 1.58096 138.079 0.639923H133.148V26.989H137.89C133.938 25.2198 133.562 20.3641 133.562 19.009H138.681C138.681 20.5523 139.396 22.6602 141.316 22.6602C142.859 22.6602 143.875 21.7568 143.875 20.1006C143.875 15.6213 134.202 14.8308 134.202 6.85078ZM139.057 7.00134C139.057 11.0666 148.844 12.6099 148.844 19.6113C148.844 23.6389 147.226 25.9727 144.779 26.989H149.409V0.639923H144.553C148.355 2.37143 148.468 6.9637 148.468 8.28115H143.348C143.348 6.77549 143.047 4.9687 141.128 4.9687C140.149 4.9687 139.057 5.34512 139.057 7.00134Z" fill="#6708FA"/>
<path d="M149.169 5.49567V26.989H154.025V5.49567H149.169ZM159.144 26.989H164V5.49567H159.144V26.989Z" fill="#7400FF"/>
</svg>
